<svg width="120" height="120" viewBox="0 0 120 120" fill="none" xmlns="http://www.w3.org/2000/svg">
<g clip-path="url(#clip0_2955_25408)">
<path d="M118.204 74.5155C110.189 106.659 77.6304 126.22 45.4801 118.205C13.3429 110.191 -6.22105 77.6336 1.79731 45.4924C9.80816 13.3455 42.3673 -6.21826 74.5082 1.79549C106.657 9.80924 126.219 42.3705 118.204 74.5155Z" fill="#2F46F4"/>
<path d="M83.5573 45.8419C82.7847 37.8063 75.8482 35.1125 67.0906 34.3453L67.0904 23.1992L60.3059 23.1999L60.3063 34.0522C58.5228 34.0524 56.6996 34.0877 54.8883 34.1238L54.8893 23.1997L48.1085 23.1995L48.106 34.3423C46.6371 34.3723 45.1946 34.3996 43.7881 34.4005L43.7872 34.366L34.4297 34.3628L34.4315 41.6088C34.4315 41.6088 39.4416 41.5133 39.3583 41.6056C42.1064 41.6064 43.0008 43.2018 43.2609 44.5785L43.2615 57.2762L43.262 57.3244L43.2603 75.1125C43.1396 75.9774 42.6313 77.3564 40.7113 77.3597C40.7981 77.4366 35.7795 77.3584 35.7795 77.3584L34.4315 85.4608L43.2605 85.4605C44.9036 85.4624 46.5202 85.4903 48.1073 85.5004L48.1102 96.7733L54.8874 96.7744L54.8871 85.6206C56.748 85.6591 58.5488 85.6739 60.3069 85.6723L60.3039 96.7746L67.0884 96.7739L67.0905 85.521C78.4966 84.8666 86.4798 81.993 87.4712 71.2819C88.2715 62.6571 84.2144 58.8087 77.7397 57.2539C81.6732 55.2509 84.1325 51.7217 83.5573 45.8419ZM74.0654 69.946C74.0692 78.3703 59.6445 77.4121 55.0465 77.4165L55.0482 62.4806C59.6476 62.4817 74.066 61.1593 74.0654 69.946ZM70.91 48.8734C70.9079 56.5379 58.8779 55.6435 55.048 55.6438L55.0484 42.0976C58.8783 42.0973 70.9091 40.8793 70.91 48.8734Z" fill="white"/>
</g>
<defs>
<clipPath id="clip0_2955_25408">
<rect width="120" height="120" fill="white"/>
</clipPath>
</defs>
</svg>
