<?xml version="1.0" encoding="UTF-8"?>
<svg width="26px" height="26px" viewBox="0 0 26 26" version="1.1" xmlns="http://www.w3.org/2000/svg" xmlns:xlink="http://www.w3.org/1999/xlink">
    <title>欧元</title>
    <g id="Page-1" stroke="none" stroke-width="1" fill="none" fill-rule="evenodd">
        <g id="Artboard备份-2" transform="translate(-971.000000, -1696.000000)">
            <g id="欧元" transform="translate(971.000000, 1696.000000)">
                <circle id="椭圆形" fill="#FFAA1D" cx="13" cy="13" r="13"></circle>
                <circle id="椭圆形备份" fill="#242A47" cx="13" cy="13" r="11"></circle>
                <circle id="椭圆形备份-2" fill="#FFFFFF" cx="13" cy="13" r="9"></circle>
                <path d="M13.6655738,8 C13.9606557,8 14.2262295,8.0295082 14.5508197,8.08852459 C14.8459016,8.14754098 15.1409836,8.23606557 15.4360656,8.32459016 C15.7311475,8.44262295 15.9672131,8.56065574 16.2327869,8.73770492 C16.4688525,8.9147541 16.704918,9.09180328 16.852459,9.32786885 L15.7016393,10.2721311 C15.4655738,9.94754098 15.1704918,9.74098361 14.7868852,9.59344262 C14.4032787,9.44590164 14.0491803,9.38688525 13.695082,9.38688525 C13.252459,9.38688525 12.8393443,9.47540984 12.4557377,9.62295082 C12.0721311,9.8 11.7770492,10.0065574 11.4819672,10.3016393 C11.2727963,10.5340515 11.1002357,10.7847689 10.9642857,11.0682091 L14.4327869,11.0688525 C14.6098361,11.0688525 14.7278689,11.1868852 14.7278689,11.3639344 C14.7278689,11.4229508 14.7278689,11.452459 14.6983607,11.4819672 L14.4032787,12.0721311 C14.3442623,12.1606557 14.2557377,12.2491803 14.1377049,12.2491803 L10.6660296,12.2483239 C10.6590382,12.3537658 10.6557377,12.4621179 10.6557377,12.5737705 C10.6557377,12.8818406 10.680865,13.1773471 10.7393176,13.4602899 L13.842623,13.4590164 C14.0196721,13.4590164 14.1377049,13.5770492 14.1377049,13.7540984 C14.1377049,13.7836066 14.1081967,13.842623 14.1081967,13.8721311 L13.8131148,14.4622951 C13.7540984,14.5508197 13.6655738,14.6393443 13.547541,14.6393443 L11.2405704,14.6412095 C11.3077133,14.7441173 11.3786436,14.8421569 11.452459,14.9344262 C11.7180328,15.2295082 12.0131148,15.4360656 12.3967213,15.5836066 C12.7508197,15.7311475 13.1639344,15.8196721 13.6360656,15.8196721 C14.1081967,15.8196721 14.5213115,15.7311475 14.8754098,15.5540984 C15.2295082,15.3770492 15.5245902,15.1114754 15.7606557,14.8163934 L17,15.7016393 C16.6163934,16.2032787 16.1442623,16.557377 15.5836066,16.8229508 C15.0229508,17.0885246 14.3737705,17.2360656 13.6065574,17.2360656 C12.9278689,17.2360656 12.2786885,17.1180328 11.7180328,16.8819672 C11.157377,16.6459016 10.6557377,16.3508197 10.242623,15.9377049 C9.87197121,15.5670532 9.57258091,15.1488938 9.34445205,14.6406024 L8.29508197,14.6393443 C8.11803279,14.6393443 8,14.5213115 8,14.3442623 C8,14.2852459 8,14.2557377 8.0295082,14.2262295 L8.32459016,13.6360656 C8.38360656,13.547541 8.47213115,13.4590164 8.59016393,13.4590164 L8.983387,13.4601751 C8.93763173,13.1801864 8.9147541,12.8855576 8.9147541,12.5737705 C8.9147541,12.463466 8.91761749,12.3553091 8.92334428,12.2491883 L8.29508197,12.2491803 C8.11803279,12.2491803 8,12.1311475 8,11.9540984 C8,11.9245902 8,11.895082 8.0295082,11.8360656 L8.32459016,11.2459016 C8.38360656,11.157377 8.47213115,11.0688525 8.59016393,11.0688525 L9.1291011,11.0676369 C9.16986937,10.9370503 9.21645316,10.8096942 9.26885246,10.6852459 C9.50491803,10.1245902 9.85901639,9.65245902 10.2721311,9.23934426 C10.6852459,8.82622951 11.1868852,8.53114754 11.7770492,8.32459016 C12.3672131,8.11803279 12.9868852,8 13.6655738,8 Z" id="形状结合" fill="#242A47" fill-rule="nonzero"></path>
            </g>
        </g>
    </g>
</svg>